<mxfile host="app.diagrams.net" modified="2022-03-11T01:57:28.606Z" agent="5.0 (Windows NT 10.0; Win64; x64) AppleWebKit/537.36 (KHTML, like Gecko) Chrome/99.0.4844.51 Safari/537.36" etag="YkhhxurAwt6n2dJODcul" version="17.1.1" type="github">
  <diagram id="SKKUcJ5VEc6u-D2HOba2" name="Main">
    <mxGraphModel dx="1422" dy="762" grid="1" gridSize="10" guides="1" tooltips="1" connect="1" arrows="1" fold="1" page="0" pageScale="1" pageWidth="850" pageHeight="1100" math="0" shadow="0">
      <root>
        <mxCell id="0" />
        <mxCell id="1" parent="0" />
        <mxCell id="Bd9ExztTySn4Xa-1oHR2-1" value="Project" style="shape=table;childLayout=tableLayout;rowLines=0;columnLines=0;startSize=40;collapsible=0;recursiveResize=0;expand=0;pointerEvents=0;strokeColor=#666666;fontStyle=1;fontSize=20;labelBackgroundColor=none;fillColor=#666666;fontColor=#FFFFFF;" parent="1" vertex="1">
          <mxGeometry x="40" y="40" width="1910" height="920" as="geometry" />
        </mxCell>
        <mxCell id="Bd9ExztTySn4Xa-1oHR2-2" value="" style="swimlane;horizontal=0;points=[[0,0.5],[1,0.5]];portConstraint=eastwest;startSize=40;collapsible=0;recursiveResize=0;expand=0;pointerEvents=0;fillColor=#CCCCCC;" parent="Bd9ExztTySn4Xa-1oHR2-1" vertex="1">
          <mxGeometry y="40" width="1910" height="40" as="geometry" />
        </mxCell>
        <mxCell id="Bd9ExztTySn4Xa-1oHR2-3" value="Milestone 1" style="swimlane;connectable=0;startSize=40;collapsible=0;recursiveResize=0;expand=0;pointerEvents=0;strokeColor=#666666;fontColor=#333333;fillColor=#CCCCCC;fontSize=16;" parent="Bd9ExztTySn4Xa-1oHR2-2" vertex="1">
          <mxGeometry x="40" width="623" height="40" as="geometry">
            <mxRectangle width="623" height="40" as="alternateBounds" />
          </mxGeometry>
        </mxCell>
        <mxCell id="Bd9ExztTySn4Xa-1oHR2-4" value="Milestone 2" style="swimlane;connectable=0;startSize=40;collapsible=0;recursiveResize=0;expand=0;pointerEvents=0;strokeColor=#666666;fontColor=#333333;fillColor=#CCCCCC;fontSize=16;" parent="Bd9ExztTySn4Xa-1oHR2-2" vertex="1">
          <mxGeometry x="663" width="624" height="40" as="geometry">
            <mxRectangle width="624" height="40" as="alternateBounds" />
          </mxGeometry>
        </mxCell>
        <mxCell id="Bd9ExztTySn4Xa-1oHR2-5" value="Milestone 3" style="swimlane;connectable=0;startSize=40;collapsible=0;recursiveResize=0;expand=0;pointerEvents=0;strokeColor=#666666;fontColor=#333333;fillColor=#CCCCCC;fontSize=16;" parent="Bd9ExztTySn4Xa-1oHR2-2" vertex="1">
          <mxGeometry x="1287" width="623" height="40" as="geometry">
            <mxRectangle width="623" height="40" as="alternateBounds" />
          </mxGeometry>
        </mxCell>
        <mxCell id="Bd9ExztTySn4Xa-1oHR2-6" value="Lane 1" style="swimlane;horizontal=0;points=[[0,0.5],[1,0.5]];portConstraint=eastwest;startSize=40;collapsible=0;recursiveResize=0;expand=0;pointerEvents=0;strokeColor=#666666;fontColor=#333333;fillColor=#CCCCCC;fontSize=16;" parent="Bd9ExztTySn4Xa-1oHR2-1" vertex="1">
          <mxGeometry y="80" width="1910" height="120" as="geometry" />
        </mxCell>
        <mxCell id="Bd9ExztTySn4Xa-1oHR2-7" value="" style="swimlane;connectable=0;startSize=0;collapsible=0;recursiveResize=0;expand=0;pointerEvents=0;fillColor=#E6E6E6;swimlaneFillColor=#F7F7F7;" parent="Bd9ExztTySn4Xa-1oHR2-6" vertex="1">
          <mxGeometry x="40" width="623" height="120" as="geometry">
            <mxRectangle width="623" height="120" as="alternateBounds" />
          </mxGeometry>
        </mxCell>
        <mxCell id="Bd9ExztTySn4Xa-1oHR2-8" value="Agent" style="rounded=1;whiteSpace=wrap;html=1;fillColor=#ffe6cc;strokeColor=#d79b00;" parent="Bd9ExztTySn4Xa-1oHR2-7" vertex="1">
          <mxGeometry x="40" y="30" width="120" height="60" as="geometry" />
        </mxCell>
        <mxCell id="Bd9ExztTySn4Xa-1oHR2-9" value="" style="rounded=1;whiteSpace=wrap;html=1;fillColor=#ffe6cc;strokeColor=#d79b00;" parent="Bd9ExztTySn4Xa-1oHR2-7" vertex="1">
          <mxGeometry x="460" y="30" width="120" height="60" as="geometry" />
        </mxCell>
        <mxCell id="Bd9ExztTySn4Xa-1oHR2-10" value="" style="swimlane;connectable=0;startSize=0;collapsible=0;recursiveResize=0;expand=0;pointerEvents=0;fillColor=#E6E6E6;swimlaneFillColor=#F7F7F7;" parent="Bd9ExztTySn4Xa-1oHR2-6" vertex="1">
          <mxGeometry x="663" width="624" height="120" as="geometry">
            <mxRectangle width="624" height="120" as="alternateBounds" />
          </mxGeometry>
        </mxCell>
        <mxCell id="Bd9ExztTySn4Xa-1oHR2-11" value="" style="rounded=1;whiteSpace=wrap;html=1;fillColor=#ffe6cc;strokeColor=#d79b00;" parent="Bd9ExztTySn4Xa-1oHR2-10" vertex="1">
          <mxGeometry x="467" y="30" width="120" height="60" as="geometry" />
        </mxCell>
        <mxCell id="Bd9ExztTySn4Xa-1oHR2-12" value="" style="swimlane;connectable=0;startSize=0;collapsible=0;recursiveResize=0;expand=0;pointerEvents=0;fillColor=#E6E6E6;swimlaneFillColor=#F7F7F7;" parent="Bd9ExztTySn4Xa-1oHR2-6" vertex="1">
          <mxGeometry x="1287" width="623" height="120" as="geometry">
            <mxRectangle width="623" height="120" as="alternateBounds" />
          </mxGeometry>
        </mxCell>
        <mxCell id="Bd9ExztTySn4Xa-1oHR2-13" value="" style="rounded=1;whiteSpace=wrap;html=1;fillColor=#ffe6cc;strokeColor=#d79b00;" parent="Bd9ExztTySn4Xa-1oHR2-12" vertex="1">
          <mxGeometry x="251.5" y="30" width="120" height="60" as="geometry" />
        </mxCell>
        <mxCell id="Bd9ExztTySn4Xa-1oHR2-14" style="edgeStyle=orthogonalEdgeStyle;rounded=1;orthogonalLoop=1;jettySize=auto;html=1;exitX=1;exitY=0.5;exitDx=0;exitDy=0;entryX=0;entryY=0.5;entryDx=0;entryDy=0;jumpStyle=arc;strokeWidth=2;strokeColor=#808080;endArrow=open;endFill=0;" parent="Bd9ExztTySn4Xa-1oHR2-6" source="Bd9ExztTySn4Xa-1oHR2-9" target="Bd9ExztTySn4Xa-1oHR2-11" edge="1">
          <mxGeometry relative="1" as="geometry" />
        </mxCell>
        <mxCell id="Bd9ExztTySn4Xa-1oHR2-15" style="edgeStyle=orthogonalEdgeStyle;rounded=1;orthogonalLoop=1;jettySize=auto;html=1;exitX=1;exitY=0.5;exitDx=0;exitDy=0;jumpStyle=arc;strokeWidth=2;strokeColor=#808080;endArrow=open;endFill=0;" parent="Bd9ExztTySn4Xa-1oHR2-6" source="Bd9ExztTySn4Xa-1oHR2-11" target="Bd9ExztTySn4Xa-1oHR2-13" edge="1">
          <mxGeometry relative="1" as="geometry" />
        </mxCell>
        <mxCell id="Bd9ExztTySn4Xa-1oHR2-16" value="Lane 2" style="swimlane;horizontal=0;points=[[0,0.5],[1,0.5]];portConstraint=eastwest;startSize=40;collapsible=0;recursiveResize=0;expand=0;pointerEvents=0;strokeColor=#666666;fontColor=#333333;fillColor=#CCCCCC;fontSize=16;" parent="Bd9ExztTySn4Xa-1oHR2-1" vertex="1">
          <mxGeometry y="200" width="1910" height="120" as="geometry" />
        </mxCell>
        <mxCell id="Bd9ExztTySn4Xa-1oHR2-17" value="" style="swimlane;connectable=0;startSize=0;collapsible=0;recursiveResize=0;expand=0;pointerEvents=0;swimlaneFillColor=#EDEDED;" parent="Bd9ExztTySn4Xa-1oHR2-16" vertex="1">
          <mxGeometry x="40" width="623" height="120" as="geometry">
            <mxRectangle width="623" height="120" as="alternateBounds" />
          </mxGeometry>
        </mxCell>
        <mxCell id="Pblytjd7HcFPG1i_1WcL-1" value="Server" style="rounded=1;whiteSpace=wrap;html=1;fillColor=#ffe6cc;strokeColor=#d79b00;" vertex="1" parent="Bd9ExztTySn4Xa-1oHR2-17">
          <mxGeometry x="39" y="30" width="120" height="60" as="geometry" />
        </mxCell>
        <mxCell id="Bd9ExztTySn4Xa-1oHR2-18" value="" style="swimlane;connectable=0;startSize=0;collapsible=0;recursiveResize=0;expand=0;pointerEvents=0;swimlaneFillColor=#EDEDED;" parent="Bd9ExztTySn4Xa-1oHR2-16" vertex="1">
          <mxGeometry x="663" width="624" height="120" as="geometry">
            <mxRectangle width="624" height="120" as="alternateBounds" />
          </mxGeometry>
        </mxCell>
        <mxCell id="Bd9ExztTySn4Xa-1oHR2-19" value="" style="rounded=1;whiteSpace=wrap;html=1;fillColor=#ffe6cc;strokeColor=#d79b00;" parent="Bd9ExztTySn4Xa-1oHR2-18" vertex="1">
          <mxGeometry x="267" y="30" width="120" height="60" as="geometry" />
        </mxCell>
        <mxCell id="Bd9ExztTySn4Xa-1oHR2-20" value="" style="swimlane;connectable=0;startSize=0;collapsible=0;recursiveResize=0;expand=0;pointerEvents=0;swimlaneFillColor=#EDEDED;" parent="Bd9ExztTySn4Xa-1oHR2-16" vertex="1">
          <mxGeometry x="1287" width="623" height="120" as="geometry">
            <mxRectangle width="623" height="120" as="alternateBounds" />
          </mxGeometry>
        </mxCell>
        <mxCell id="Bd9ExztTySn4Xa-1oHR2-21" value="" style="rounded=1;whiteSpace=wrap;html=1;fillColor=#ffe6cc;strokeColor=#d79b00;" parent="Bd9ExztTySn4Xa-1oHR2-20" vertex="1">
          <mxGeometry x="42" y="30" width="120" height="60" as="geometry" />
        </mxCell>
        <mxCell id="Bd9ExztTySn4Xa-1oHR2-22" style="edgeStyle=orthogonalEdgeStyle;rounded=1;orthogonalLoop=1;jettySize=auto;html=1;exitX=1;exitY=0.5;exitDx=0;exitDy=0;entryX=0;entryY=0.5;entryDx=0;entryDy=0;jumpStyle=arc;strokeWidth=2;strokeColor=#808080;endArrow=open;endFill=0;" parent="Bd9ExztTySn4Xa-1oHR2-16" source="Bd9ExztTySn4Xa-1oHR2-19" target="Bd9ExztTySn4Xa-1oHR2-21" edge="1">
          <mxGeometry relative="1" as="geometry" />
        </mxCell>
        <mxCell id="Bd9ExztTySn4Xa-1oHR2-23" value="Lane 3" style="swimlane;horizontal=0;points=[[0,0.5],[1,0.5]];portConstraint=eastwest;startSize=40;collapsible=0;recursiveResize=0;expand=0;pointerEvents=0;strokeColor=#666666;fontColor=#333333;fillColor=#CCCCCC;fontSize=16;" parent="Bd9ExztTySn4Xa-1oHR2-1" vertex="1">
          <mxGeometry y="320" width="1910" height="120" as="geometry" />
        </mxCell>
        <mxCell id="Bd9ExztTySn4Xa-1oHR2-24" value="" style="swimlane;connectable=0;startSize=0;collapsible=0;recursiveResize=0;expand=0;pointerEvents=0;swimlaneFillColor=#F7F7F7;" parent="Bd9ExztTySn4Xa-1oHR2-23" vertex="1">
          <mxGeometry x="40" width="623" height="120" as="geometry">
            <mxRectangle width="623" height="120" as="alternateBounds" />
          </mxGeometry>
        </mxCell>
        <mxCell id="Bd9ExztTySn4Xa-1oHR2-25" value="" style="rounded=1;whiteSpace=wrap;html=1;fillColor=#ffe6cc;strokeColor=#d79b00;" parent="Bd9ExztTySn4Xa-1oHR2-24" vertex="1">
          <mxGeometry x="251.5" y="30" width="120" height="60" as="geometry" />
        </mxCell>
        <mxCell id="Bd9ExztTySn4Xa-1oHR2-26" value="" style="swimlane;connectable=0;startSize=0;collapsible=0;recursiveResize=0;expand=0;pointerEvents=0;swimlaneFillColor=#F7F7F7;" parent="Bd9ExztTySn4Xa-1oHR2-23" vertex="1">
          <mxGeometry x="663" width="624" height="120" as="geometry">
            <mxRectangle width="624" height="120" as="alternateBounds" />
          </mxGeometry>
        </mxCell>
        <mxCell id="Bd9ExztTySn4Xa-1oHR2-27" value="" style="rounded=1;whiteSpace=wrap;html=1;fillColor=#ffe6cc;strokeColor=#d79b00;" parent="Bd9ExztTySn4Xa-1oHR2-26" vertex="1">
          <mxGeometry x="467" y="30" width="120" height="60" as="geometry" />
        </mxCell>
        <mxCell id="Bd9ExztTySn4Xa-1oHR2-28" value="" style="swimlane;connectable=0;startSize=0;collapsible=0;recursiveResize=0;expand=0;pointerEvents=0;swimlaneFillColor=#F7F7F7;" parent="Bd9ExztTySn4Xa-1oHR2-23" vertex="1">
          <mxGeometry x="1287" width="623" height="120" as="geometry">
            <mxRectangle width="623" height="120" as="alternateBounds" />
          </mxGeometry>
        </mxCell>
        <mxCell id="Bd9ExztTySn4Xa-1oHR2-29" value="Lane 4" style="swimlane;horizontal=0;points=[[0,0.5],[1,0.5]];portConstraint=eastwest;startSize=40;collapsible=0;recursiveResize=0;expand=0;pointerEvents=0;strokeColor=#666666;fontColor=#333333;fillColor=#CCCCCC;fontSize=16;" parent="Bd9ExztTySn4Xa-1oHR2-1" vertex="1">
          <mxGeometry y="440" width="1910" height="120" as="geometry" />
        </mxCell>
        <mxCell id="Bd9ExztTySn4Xa-1oHR2-30" value="" style="swimlane;connectable=0;startSize=0;collapsible=0;recursiveResize=0;expand=0;pointerEvents=0;swimlaneFillColor=#EDEDED;" parent="Bd9ExztTySn4Xa-1oHR2-29" vertex="1">
          <mxGeometry x="40" width="623" height="120" as="geometry">
            <mxRectangle width="623" height="120" as="alternateBounds" />
          </mxGeometry>
        </mxCell>
        <mxCell id="Bd9ExztTySn4Xa-1oHR2-31" value="" style="rounded=1;whiteSpace=wrap;html=1;fillColor=#ffe6cc;strokeColor=#d79b00;" parent="Bd9ExztTySn4Xa-1oHR2-30" vertex="1">
          <mxGeometry x="460" y="30" width="120" height="60" as="geometry" />
        </mxCell>
        <mxCell id="Bd9ExztTySn4Xa-1oHR2-32" value="" style="swimlane;connectable=0;startSize=0;collapsible=0;recursiveResize=0;expand=0;pointerEvents=0;swimlaneFillColor=#EDEDED;" parent="Bd9ExztTySn4Xa-1oHR2-29" vertex="1">
          <mxGeometry x="663" width="624" height="120" as="geometry">
            <mxRectangle width="624" height="120" as="alternateBounds" />
          </mxGeometry>
        </mxCell>
        <mxCell id="Bd9ExztTySn4Xa-1oHR2-33" value="" style="edgeStyle=orthogonalEdgeStyle;rounded=1;orthogonalLoop=1;jettySize=auto;html=1;jumpStyle=arc;strokeWidth=2;strokeColor=#808080;endArrow=open;endFill=0;" parent="Bd9ExztTySn4Xa-1oHR2-32" source="Bd9ExztTySn4Xa-1oHR2-34" target="Bd9ExztTySn4Xa-1oHR2-35" edge="1">
          <mxGeometry relative="1" as="geometry" />
        </mxCell>
        <mxCell id="Bd9ExztTySn4Xa-1oHR2-34" value="" style="rounded=1;whiteSpace=wrap;html=1;fillColor=#ffe6cc;strokeColor=#d79b00;" parent="Bd9ExztTySn4Xa-1oHR2-32" vertex="1">
          <mxGeometry x="47" y="30" width="120" height="60" as="geometry" />
        </mxCell>
        <mxCell id="Bd9ExztTySn4Xa-1oHR2-35" value="" style="rounded=1;whiteSpace=wrap;html=1;fillColor=#ffe6cc;strokeColor=#d79b00;" parent="Bd9ExztTySn4Xa-1oHR2-32" vertex="1">
          <mxGeometry x="267" y="30" width="120" height="60" as="geometry" />
        </mxCell>
        <mxCell id="Bd9ExztTySn4Xa-1oHR2-36" value="" style="swimlane;connectable=0;startSize=0;collapsible=0;recursiveResize=0;expand=0;pointerEvents=0;swimlaneFillColor=#EDEDED;" parent="Bd9ExztTySn4Xa-1oHR2-29" vertex="1">
          <mxGeometry x="1287" width="623" height="120" as="geometry">
            <mxRectangle width="623" height="120" as="alternateBounds" />
          </mxGeometry>
        </mxCell>
        <mxCell id="Bd9ExztTySn4Xa-1oHR2-37" style="edgeStyle=orthogonalEdgeStyle;rounded=1;orthogonalLoop=1;jettySize=auto;html=1;exitX=1;exitY=0.5;exitDx=0;exitDy=0;jumpStyle=arc;strokeWidth=2;strokeColor=#808080;endArrow=open;endFill=0;" parent="Bd9ExztTySn4Xa-1oHR2-29" source="Bd9ExztTySn4Xa-1oHR2-31" target="Bd9ExztTySn4Xa-1oHR2-34" edge="1">
          <mxGeometry relative="1" as="geometry" />
        </mxCell>
        <mxCell id="Bd9ExztTySn4Xa-1oHR2-38" value="Lane 5" style="swimlane;horizontal=0;points=[[0,0.5],[1,0.5]];portConstraint=eastwest;startSize=40;collapsible=0;recursiveResize=0;expand=0;pointerEvents=0;fillColor=#CCCCCC;fontSize=16;" parent="Bd9ExztTySn4Xa-1oHR2-1" vertex="1">
          <mxGeometry y="560" width="1910" height="120" as="geometry" />
        </mxCell>
        <mxCell id="Bd9ExztTySn4Xa-1oHR2-39" value="" style="swimlane;connectable=0;startSize=0;collapsible=0;recursiveResize=0;expand=0;pointerEvents=0;swimlaneFillColor=#F7F7F7;" parent="Bd9ExztTySn4Xa-1oHR2-38" vertex="1">
          <mxGeometry x="40" width="623" height="120" as="geometry">
            <mxRectangle width="623" height="120" as="alternateBounds" />
          </mxGeometry>
        </mxCell>
        <mxCell id="Bd9ExztTySn4Xa-1oHR2-40" style="edgeStyle=orthogonalEdgeStyle;rounded=1;orthogonalLoop=1;jettySize=auto;html=1;exitX=1;exitY=0.5;exitDx=0;exitDy=0;entryX=0;entryY=0.5;entryDx=0;entryDy=0;jumpStyle=arc;strokeWidth=2;strokeColor=#808080;endArrow=open;endFill=0;" parent="Bd9ExztTySn4Xa-1oHR2-39" source="Bd9ExztTySn4Xa-1oHR2-41" target="Bd9ExztTySn4Xa-1oHR2-42" edge="1">
          <mxGeometry relative="1" as="geometry" />
        </mxCell>
        <mxCell id="Bd9ExztTySn4Xa-1oHR2-41" value="" style="rounded=1;whiteSpace=wrap;html=1;fillColor=#ffe6cc;strokeColor=#d79b00;" parent="Bd9ExztTySn4Xa-1oHR2-39" vertex="1">
          <mxGeometry x="251.5" y="30" width="120" height="60" as="geometry" />
        </mxCell>
        <mxCell id="Bd9ExztTySn4Xa-1oHR2-42" value="" style="rounded=1;whiteSpace=wrap;html=1;fillColor=#ffe6cc;strokeColor=#d79b00;" parent="Bd9ExztTySn4Xa-1oHR2-39" vertex="1">
          <mxGeometry x="460" y="30" width="120" height="60" as="geometry" />
        </mxCell>
        <mxCell id="Bd9ExztTySn4Xa-1oHR2-43" value="" style="swimlane;connectable=0;startSize=0;collapsible=0;recursiveResize=0;expand=0;pointerEvents=0;swimlaneFillColor=#F7F7F7;" parent="Bd9ExztTySn4Xa-1oHR2-38" vertex="1">
          <mxGeometry x="663" width="624" height="120" as="geometry">
            <mxRectangle width="624" height="120" as="alternateBounds" />
          </mxGeometry>
        </mxCell>
        <mxCell id="Bd9ExztTySn4Xa-1oHR2-44" value="" style="swimlane;connectable=0;startSize=0;collapsible=0;recursiveResize=0;expand=0;pointerEvents=0;swimlaneFillColor=#F7F7F7;" parent="Bd9ExztTySn4Xa-1oHR2-38" vertex="1">
          <mxGeometry x="1287" width="623" height="120" as="geometry">
            <mxRectangle width="623" height="120" as="alternateBounds" />
          </mxGeometry>
        </mxCell>
        <mxCell id="Bd9ExztTySn4Xa-1oHR2-45" value="" style="rounded=1;whiteSpace=wrap;html=1;fillColor=#ffe6cc;strokeColor=#d79b00;" parent="Bd9ExztTySn4Xa-1oHR2-44" vertex="1">
          <mxGeometry x="251.5" y="30" width="120" height="60" as="geometry" />
        </mxCell>
        <mxCell id="Bd9ExztTySn4Xa-1oHR2-46" style="edgeStyle=orthogonalEdgeStyle;rounded=1;orthogonalLoop=1;jettySize=auto;html=1;exitX=1;exitY=0.5;exitDx=0;exitDy=0;entryX=0;entryY=0.5;entryDx=0;entryDy=0;jumpStyle=arc;strokeWidth=2;strokeColor=#808080;endArrow=open;endFill=0;" parent="Bd9ExztTySn4Xa-1oHR2-44" source="Bd9ExztTySn4Xa-1oHR2-47" target="Bd9ExztTySn4Xa-1oHR2-45" edge="1">
          <mxGeometry relative="1" as="geometry" />
        </mxCell>
        <mxCell id="Bd9ExztTySn4Xa-1oHR2-47" value="" style="rounded=1;whiteSpace=wrap;html=1;fillColor=#ffe6cc;strokeColor=#d79b00;" parent="Bd9ExztTySn4Xa-1oHR2-44" vertex="1">
          <mxGeometry x="42" y="30" width="120" height="60" as="geometry" />
        </mxCell>
        <mxCell id="Bd9ExztTySn4Xa-1oHR2-48" value="Lane 6" style="swimlane;horizontal=0;points=[[0,0.5],[1,0.5]];portConstraint=eastwest;startSize=40;collapsible=0;recursiveResize=0;expand=0;pointerEvents=0;fillColor=#CCCCCC;fontSize=16;" parent="Bd9ExztTySn4Xa-1oHR2-1" vertex="1">
          <mxGeometry y="680" width="1910" height="120" as="geometry" />
        </mxCell>
        <mxCell id="Bd9ExztTySn4Xa-1oHR2-49" value="" style="swimlane;connectable=0;startSize=0;collapsible=0;recursiveResize=0;expand=0;pointerEvents=0;swimlaneFillColor=#EDEDED;" parent="Bd9ExztTySn4Xa-1oHR2-48" vertex="1">
          <mxGeometry x="40" width="623" height="120" as="geometry">
            <mxRectangle width="623" height="120" as="alternateBounds" />
          </mxGeometry>
        </mxCell>
        <mxCell id="Bd9ExztTySn4Xa-1oHR2-50" value="" style="rounded=1;whiteSpace=wrap;html=1;fillColor=#ffe6cc;strokeColor=#d79b00;" parent="Bd9ExztTySn4Xa-1oHR2-49" vertex="1">
          <mxGeometry x="251.5" y="30" width="120" height="60" as="geometry" />
        </mxCell>
        <mxCell id="Bd9ExztTySn4Xa-1oHR2-51" value="" style="swimlane;connectable=0;startSize=0;collapsible=0;recursiveResize=0;expand=0;pointerEvents=0;swimlaneFillColor=#EDEDED;" parent="Bd9ExztTySn4Xa-1oHR2-48" vertex="1">
          <mxGeometry x="663" width="624" height="120" as="geometry">
            <mxRectangle width="624" height="120" as="alternateBounds" />
          </mxGeometry>
        </mxCell>
        <mxCell id="Bd9ExztTySn4Xa-1oHR2-52" value="" style="rounded=1;whiteSpace=wrap;html=1;fillColor=#ffe6cc;strokeColor=#d79b00;" parent="Bd9ExztTySn4Xa-1oHR2-51" vertex="1">
          <mxGeometry x="47" y="30" width="120" height="60" as="geometry" />
        </mxCell>
        <mxCell id="Bd9ExztTySn4Xa-1oHR2-53" value="" style="rounded=1;whiteSpace=wrap;html=1;fillColor=#ffe6cc;strokeColor=#d79b00;" parent="Bd9ExztTySn4Xa-1oHR2-51" vertex="1">
          <mxGeometry x="267" y="30" width="120" height="60" as="geometry" />
        </mxCell>
        <mxCell id="Bd9ExztTySn4Xa-1oHR2-54" value="" style="edgeStyle=orthogonalEdgeStyle;rounded=1;orthogonalLoop=1;jettySize=auto;html=1;jumpStyle=arc;strokeWidth=2;strokeColor=#808080;endArrow=open;endFill=0;" parent="Bd9ExztTySn4Xa-1oHR2-51" source="Bd9ExztTySn4Xa-1oHR2-52" target="Bd9ExztTySn4Xa-1oHR2-53" edge="1">
          <mxGeometry relative="1" as="geometry" />
        </mxCell>
        <mxCell id="Bd9ExztTySn4Xa-1oHR2-55" value="" style="swimlane;connectable=0;startSize=0;collapsible=0;recursiveResize=0;expand=0;pointerEvents=0;swimlaneFillColor=#EDEDED;" parent="Bd9ExztTySn4Xa-1oHR2-48" vertex="1">
          <mxGeometry x="1287" width="623" height="120" as="geometry">
            <mxRectangle width="623" height="120" as="alternateBounds" />
          </mxGeometry>
        </mxCell>
        <mxCell id="Bd9ExztTySn4Xa-1oHR2-56" value="" style="rounded=1;whiteSpace=wrap;html=1;fillColor=#ffe6cc;strokeColor=#d79b00;" parent="Bd9ExztTySn4Xa-1oHR2-55" vertex="1">
          <mxGeometry x="42" y="30" width="120" height="60" as="geometry" />
        </mxCell>
        <mxCell id="Bd9ExztTySn4Xa-1oHR2-57" value="" style="rounded=1;whiteSpace=wrap;html=1;fillColor=#ffe6cc;strokeColor=#d79b00;" parent="Bd9ExztTySn4Xa-1oHR2-55" vertex="1">
          <mxGeometry x="463" y="30" width="120" height="60" as="geometry" />
        </mxCell>
        <mxCell id="Bd9ExztTySn4Xa-1oHR2-58" style="edgeStyle=orthogonalEdgeStyle;rounded=1;orthogonalLoop=1;jettySize=auto;html=1;exitX=1;exitY=0.5;exitDx=0;exitDy=0;jumpStyle=arc;strokeWidth=2;strokeColor=#808080;endArrow=open;endFill=0;" parent="Bd9ExztTySn4Xa-1oHR2-48" source="Bd9ExztTySn4Xa-1oHR2-53" target="Bd9ExztTySn4Xa-1oHR2-56" edge="1">
          <mxGeometry relative="1" as="geometry" />
        </mxCell>
        <mxCell id="Bd9ExztTySn4Xa-1oHR2-59" value="Lane 7" style="swimlane;horizontal=0;points=[[0,0.5],[1,0.5]];portConstraint=eastwest;startSize=40;collapsible=0;recursiveResize=0;expand=0;pointerEvents=0;fillColor=#CCCCCC;fontSize=16;" parent="Bd9ExztTySn4Xa-1oHR2-1" vertex="1">
          <mxGeometry y="800" width="1910" height="120" as="geometry" />
        </mxCell>
        <mxCell id="Bd9ExztTySn4Xa-1oHR2-60" style="swimlane;connectable=0;startSize=0;collapsible=0;recursiveResize=0;expand=0;pointerEvents=0;swimlaneFillColor=#F7F7F7;" parent="Bd9ExztTySn4Xa-1oHR2-59" vertex="1">
          <mxGeometry x="40" width="623" height="120" as="geometry">
            <mxRectangle width="623" height="120" as="alternateBounds" />
          </mxGeometry>
        </mxCell>
        <mxCell id="Bd9ExztTySn4Xa-1oHR2-61" style="swimlane;connectable=0;startSize=0;collapsible=0;recursiveResize=0;expand=0;pointerEvents=0;swimlaneFillColor=#F7F7F7;" parent="Bd9ExztTySn4Xa-1oHR2-59" vertex="1">
          <mxGeometry x="663" width="624" height="120" as="geometry">
            <mxRectangle width="624" height="120" as="alternateBounds" />
          </mxGeometry>
        </mxCell>
        <mxCell id="Bd9ExztTySn4Xa-1oHR2-62" value="" style="rounded=1;whiteSpace=wrap;html=1;fillColor=#ffe6cc;strokeColor=#d79b00;" parent="Bd9ExztTySn4Xa-1oHR2-61" vertex="1">
          <mxGeometry x="267" y="30" width="120" height="60" as="geometry" />
        </mxCell>
        <mxCell id="Bd9ExztTySn4Xa-1oHR2-63" style="swimlane;connectable=0;startSize=0;collapsible=0;recursiveResize=0;expand=0;pointerEvents=0;swimlaneFillColor=#F7F7F7;" parent="Bd9ExztTySn4Xa-1oHR2-59" vertex="1">
          <mxGeometry x="1287" width="623" height="120" as="geometry">
            <mxRectangle width="623" height="120" as="alternateBounds" />
          </mxGeometry>
        </mxCell>
        <mxCell id="Bd9ExztTySn4Xa-1oHR2-64" value="" style="rounded=1;whiteSpace=wrap;html=1;fillColor=#ffe6cc;strokeColor=#d79b00;" parent="Bd9ExztTySn4Xa-1oHR2-63" vertex="1">
          <mxGeometry x="251.5" y="30" width="120" height="60" as="geometry" />
        </mxCell>
        <mxCell id="Bd9ExztTySn4Xa-1oHR2-65" style="edgeStyle=orthogonalEdgeStyle;rounded=1;orthogonalLoop=1;jettySize=auto;html=1;exitX=1;exitY=0.5;exitDx=0;exitDy=0;jumpStyle=arc;strokeWidth=2;strokeColor=#808080;endArrow=open;endFill=0;" parent="Bd9ExztTySn4Xa-1oHR2-59" source="Bd9ExztTySn4Xa-1oHR2-62" target="Bd9ExztTySn4Xa-1oHR2-64" edge="1">
          <mxGeometry relative="1" as="geometry" />
        </mxCell>
        <mxCell id="Bd9ExztTySn4Xa-1oHR2-66" style="edgeStyle=orthogonalEdgeStyle;rounded=1;orthogonalLoop=1;jettySize=auto;html=1;entryX=0;entryY=0.5;entryDx=0;entryDy=0;exitX=1;exitY=0.25;exitDx=0;exitDy=0;jumpStyle=arc;strokeWidth=2;strokeColor=#808080;endArrow=open;endFill=0;" parent="Bd9ExztTySn4Xa-1oHR2-1" source="Bd9ExztTySn4Xa-1oHR2-8" target="Bd9ExztTySn4Xa-1oHR2-25" edge="1">
          <mxGeometry relative="1" as="geometry">
            <Array as="points">
              <mxPoint x="250" y="125" />
              <mxPoint x="250" y="380" />
            </Array>
          </mxGeometry>
        </mxCell>
        <mxCell id="Bd9ExztTySn4Xa-1oHR2-67" style="edgeStyle=orthogonalEdgeStyle;rounded=1;orthogonalLoop=1;jettySize=auto;html=1;entryX=0;entryY=0.5;entryDx=0;entryDy=0;jumpStyle=arc;strokeWidth=2;strokeColor=#808080;endArrow=open;endFill=0;" parent="Bd9ExztTySn4Xa-1oHR2-1" source="Bd9ExztTySn4Xa-1oHR2-8" target="Bd9ExztTySn4Xa-1oHR2-41" edge="1">
          <mxGeometry relative="1" as="geometry">
            <Array as="points">
              <mxPoint x="240" y="140" />
              <mxPoint x="240" y="620" />
            </Array>
          </mxGeometry>
        </mxCell>
        <mxCell id="Bd9ExztTySn4Xa-1oHR2-68" style="edgeStyle=orthogonalEdgeStyle;rounded=1;orthogonalLoop=1;jettySize=auto;html=1;entryX=0;entryY=0.5;entryDx=0;entryDy=0;exitX=1;exitY=0.75;exitDx=0;exitDy=0;jumpStyle=arc;strokeWidth=2;strokeColor=#808080;endArrow=open;endFill=0;" parent="Bd9ExztTySn4Xa-1oHR2-1" source="Bd9ExztTySn4Xa-1oHR2-8" target="Bd9ExztTySn4Xa-1oHR2-50" edge="1">
          <mxGeometry relative="1" as="geometry">
            <Array as="points">
              <mxPoint x="230" y="155" />
              <mxPoint x="230" y="740" />
            </Array>
          </mxGeometry>
        </mxCell>
        <mxCell id="Bd9ExztTySn4Xa-1oHR2-69" style="edgeStyle=orthogonalEdgeStyle;rounded=1;orthogonalLoop=1;jettySize=auto;html=1;exitX=1;exitY=0.25;exitDx=0;exitDy=0;entryX=0;entryY=0.5;entryDx=0;entryDy=0;jumpStyle=arc;strokeWidth=2;strokeColor=#808080;endArrow=open;endFill=0;" parent="Bd9ExztTySn4Xa-1oHR2-1" source="Bd9ExztTySn4Xa-1oHR2-25" target="Bd9ExztTySn4Xa-1oHR2-9" edge="1">
          <mxGeometry relative="1" as="geometry" />
        </mxCell>
        <mxCell id="Bd9ExztTySn4Xa-1oHR2-70" style="edgeStyle=orthogonalEdgeStyle;rounded=1;orthogonalLoop=1;jettySize=auto;html=1;exitX=1;exitY=0.5;exitDx=0;exitDy=0;entryX=0;entryY=0.5;entryDx=0;entryDy=0;jumpStyle=arc;strokeWidth=2;strokeColor=#808080;endArrow=open;endFill=0;" parent="Bd9ExztTySn4Xa-1oHR2-1" source="Bd9ExztTySn4Xa-1oHR2-25" target="Bd9ExztTySn4Xa-1oHR2-31" edge="1">
          <mxGeometry relative="1" as="geometry">
            <Array as="points">
              <mxPoint x="450" y="380" />
              <mxPoint x="450" y="500" />
            </Array>
          </mxGeometry>
        </mxCell>
        <mxCell id="Bd9ExztTySn4Xa-1oHR2-71" style="edgeStyle=orthogonalEdgeStyle;rounded=1;orthogonalLoop=1;jettySize=auto;html=1;exitX=1;exitY=0.75;exitDx=0;exitDy=0;entryX=0;entryY=0.25;entryDx=0;entryDy=0;jumpStyle=arc;strokeWidth=2;strokeColor=#808080;endArrow=open;endFill=0;" parent="Bd9ExztTySn4Xa-1oHR2-1" source="Bd9ExztTySn4Xa-1oHR2-25" target="Bd9ExztTySn4Xa-1oHR2-42" edge="1">
          <mxGeometry relative="1" as="geometry">
            <Array as="points">
              <mxPoint x="440" y="395" />
              <mxPoint x="440" y="605" />
            </Array>
          </mxGeometry>
        </mxCell>
        <mxCell id="Bd9ExztTySn4Xa-1oHR2-72" style="edgeStyle=orthogonalEdgeStyle;rounded=1;orthogonalLoop=1;jettySize=auto;html=1;exitX=1;exitY=0.5;exitDx=0;exitDy=0;entryX=0;entryY=0.75;entryDx=0;entryDy=0;jumpStyle=arc;strokeWidth=2;strokeColor=#808080;endArrow=open;endFill=0;" parent="Bd9ExztTySn4Xa-1oHR2-1" source="Bd9ExztTySn4Xa-1oHR2-50" target="Bd9ExztTySn4Xa-1oHR2-42" edge="1">
          <mxGeometry relative="1" as="geometry" />
        </mxCell>
        <mxCell id="Bd9ExztTySn4Xa-1oHR2-73" style="edgeStyle=orthogonalEdgeStyle;rounded=1;orthogonalLoop=1;jettySize=auto;html=1;exitX=1;exitY=0.5;exitDx=0;exitDy=0;entryX=0;entryY=0.5;entryDx=0;entryDy=0;jumpStyle=arc;strokeWidth=2;strokeColor=#808080;endArrow=open;endFill=0;" parent="Bd9ExztTySn4Xa-1oHR2-1" source="Bd9ExztTySn4Xa-1oHR2-35" target="Bd9ExztTySn4Xa-1oHR2-27" edge="1">
          <mxGeometry relative="1" as="geometry" />
        </mxCell>
        <mxCell id="Bd9ExztTySn4Xa-1oHR2-74" style="edgeStyle=orthogonalEdgeStyle;rounded=1;orthogonalLoop=1;jettySize=auto;html=1;exitX=1;exitY=0.75;exitDx=0;exitDy=0;entryX=0;entryY=0.5;entryDx=0;entryDy=0;jumpStyle=arc;strokeWidth=2;strokeColor=#808080;endArrow=open;endFill=0;" parent="Bd9ExztTySn4Xa-1oHR2-1" source="Bd9ExztTySn4Xa-1oHR2-9" target="Bd9ExztTySn4Xa-1oHR2-19" edge="1">
          <mxGeometry relative="1" as="geometry" />
        </mxCell>
        <mxCell id="Bd9ExztTySn4Xa-1oHR2-75" style="edgeStyle=orthogonalEdgeStyle;rounded=1;orthogonalLoop=1;jettySize=auto;html=1;exitX=1;exitY=0.5;exitDx=0;exitDy=0;entryX=0;entryY=0.5;entryDx=0;entryDy=0;jumpStyle=arc;strokeWidth=2;strokeColor=#808080;endArrow=open;endFill=0;" parent="Bd9ExztTySn4Xa-1oHR2-1" source="Bd9ExztTySn4Xa-1oHR2-42" target="Bd9ExztTySn4Xa-1oHR2-52" edge="1">
          <mxGeometry relative="1" as="geometry">
            <Array as="points">
              <mxPoint x="650" y="620" />
              <mxPoint x="650" y="740" />
            </Array>
          </mxGeometry>
        </mxCell>
        <mxCell id="Bd9ExztTySn4Xa-1oHR2-76" style="edgeStyle=orthogonalEdgeStyle;rounded=1;orthogonalLoop=1;jettySize=auto;html=1;exitX=1;exitY=0.75;exitDx=0;exitDy=0;entryX=0;entryY=0.5;entryDx=0;entryDy=0;jumpStyle=arc;strokeWidth=2;strokeColor=#808080;endArrow=open;endFill=0;" parent="Bd9ExztTySn4Xa-1oHR2-1" source="Bd9ExztTySn4Xa-1oHR2-52" target="Bd9ExztTySn4Xa-1oHR2-62" edge="1">
          <mxGeometry relative="1" as="geometry" />
        </mxCell>
        <mxCell id="Bd9ExztTySn4Xa-1oHR2-77" style="edgeStyle=orthogonalEdgeStyle;rounded=1;orthogonalLoop=1;jettySize=auto;html=1;exitX=1;exitY=0.5;exitDx=0;exitDy=0;entryX=0;entryY=0.25;entryDx=0;entryDy=0;jumpStyle=arc;strokeWidth=2;strokeColor=#808080;endArrow=open;endFill=0;" parent="Bd9ExztTySn4Xa-1oHR2-1" source="Bd9ExztTySn4Xa-1oHR2-11" target="Bd9ExztTySn4Xa-1oHR2-21" edge="1">
          <mxGeometry relative="1" as="geometry">
            <Array as="points">
              <mxPoint x="1270" y="140" />
              <mxPoint x="1270" y="245" />
            </Array>
          </mxGeometry>
        </mxCell>
        <mxCell id="Bd9ExztTySn4Xa-1oHR2-78" style="edgeStyle=orthogonalEdgeStyle;rounded=1;orthogonalLoop=1;jettySize=auto;html=1;exitX=1;exitY=0.25;exitDx=0;exitDy=0;entryX=0;entryY=0.5;entryDx=0;entryDy=0;jumpStyle=arc;strokeWidth=2;strokeColor=#808080;endArrow=open;endFill=0;" parent="Bd9ExztTySn4Xa-1oHR2-1" source="Bd9ExztTySn4Xa-1oHR2-53" target="Bd9ExztTySn4Xa-1oHR2-47" edge="1">
          <mxGeometry relative="1" as="geometry" />
        </mxCell>
        <mxCell id="Bd9ExztTySn4Xa-1oHR2-79" style="edgeStyle=orthogonalEdgeStyle;rounded=1;orthogonalLoop=1;jettySize=auto;html=1;exitX=1;exitY=0.5;exitDx=0;exitDy=0;entryX=0;entryY=0.25;entryDx=0;entryDy=0;jumpStyle=arc;strokeWidth=2;strokeColor=#808080;endArrow=open;endFill=0;" parent="Bd9ExztTySn4Xa-1oHR2-1" source="Bd9ExztTySn4Xa-1oHR2-27" target="Bd9ExztTySn4Xa-1oHR2-47" edge="1">
          <mxGeometry relative="1" as="geometry">
            <Array as="points">
              <mxPoint x="1270" y="380" />
              <mxPoint x="1270" y="605" />
            </Array>
          </mxGeometry>
        </mxCell>
        <mxCell id="Bd9ExztTySn4Xa-1oHR2-80" style="edgeStyle=orthogonalEdgeStyle;rounded=1;orthogonalLoop=1;jettySize=auto;html=1;exitX=1;exitY=0.5;exitDx=0;exitDy=0;entryX=0;entryY=0.25;entryDx=0;entryDy=0;jumpStyle=arc;strokeWidth=2;strokeColor=#808080;endArrow=open;endFill=0;" parent="Bd9ExztTySn4Xa-1oHR2-1" source="Bd9ExztTySn4Xa-1oHR2-56" target="Bd9ExztTySn4Xa-1oHR2-64" edge="1">
          <mxGeometry relative="1" as="geometry" />
        </mxCell>
        <mxCell id="Bd9ExztTySn4Xa-1oHR2-81" style="edgeStyle=orthogonalEdgeStyle;rounded=1;orthogonalLoop=1;jettySize=auto;html=1;exitX=1;exitY=0.5;exitDx=0;exitDy=0;entryX=0;entryY=0.25;entryDx=0;entryDy=0;jumpStyle=arc;strokeWidth=2;strokeColor=#808080;endArrow=open;endFill=0;" parent="Bd9ExztTySn4Xa-1oHR2-1" source="Bd9ExztTySn4Xa-1oHR2-21" target="Bd9ExztTySn4Xa-1oHR2-57" edge="1">
          <mxGeometry relative="1" as="geometry">
            <Array as="points">
              <mxPoint x="1700" y="260" />
              <mxPoint x="1700" y="725" />
            </Array>
          </mxGeometry>
        </mxCell>
        <mxCell id="Bd9ExztTySn4Xa-1oHR2-82" style="edgeStyle=orthogonalEdgeStyle;rounded=1;orthogonalLoop=1;jettySize=auto;html=1;exitX=1;exitY=0.5;exitDx=0;exitDy=0;entryX=0;entryY=0.5;entryDx=0;entryDy=0;jumpStyle=arc;strokeWidth=2;strokeColor=#808080;endArrow=open;endFill=0;" parent="Bd9ExztTySn4Xa-1oHR2-1" source="Bd9ExztTySn4Xa-1oHR2-45" target="Bd9ExztTySn4Xa-1oHR2-57" edge="1">
          <mxGeometry relative="1" as="geometry">
            <Array as="points">
              <mxPoint x="1690" y="620" />
              <mxPoint x="1690" y="740" />
            </Array>
          </mxGeometry>
        </mxCell>
        <mxCell id="Bd9ExztTySn4Xa-1oHR2-83" style="edgeStyle=orthogonalEdgeStyle;rounded=1;orthogonalLoop=1;jettySize=auto;html=1;exitX=1;exitY=0.5;exitDx=0;exitDy=0;entryX=0.5;entryY=0;entryDx=0;entryDy=0;jumpStyle=arc;strokeWidth=2;strokeColor=#808080;endArrow=open;endFill=0;" parent="Bd9ExztTySn4Xa-1oHR2-1" source="Bd9ExztTySn4Xa-1oHR2-13" target="Bd9ExztTySn4Xa-1oHR2-57" edge="1">
          <mxGeometry relative="1" as="geometry" />
        </mxCell>
        <mxCell id="Bd9ExztTySn4Xa-1oHR2-84" style="edgeStyle=orthogonalEdgeStyle;rounded=1;orthogonalLoop=1;jettySize=auto;html=1;exitX=1;exitY=0.5;exitDx=0;exitDy=0;entryX=0;entryY=0.75;entryDx=0;entryDy=0;jumpStyle=arc;strokeWidth=2;strokeColor=#808080;endArrow=open;endFill=0;" parent="Bd9ExztTySn4Xa-1oHR2-1" source="Bd9ExztTySn4Xa-1oHR2-64" target="Bd9ExztTySn4Xa-1oHR2-57" edge="1">
          <mxGeometry relative="1" as="geometry">
            <Array as="points">
              <mxPoint x="1690" y="860" />
              <mxPoint x="1690" y="755" />
            </Array>
          </mxGeometry>
        </mxCell>
      </root>
    </mxGraphModel>
  </diagram>
</mxfile>
